#!OML:ASF F:\VICON\USERDATA\INSTALL\rory3\rory3.ASF
:FULLY-SPECIFIED
:DEGREES
27
root -1.1459204810696066 17.971904998953168 -14.852221942875744 5.0978911072337825 0.25642410266640736 0.3569263248282809
lfemur -38.475859443412304 3.0972454976746704 -23.094476277085796
ltibia 47.1012743147122
lfoot 7.249666090669998 -20.913228865890662
ltoes -7.803315942582422
rfemur 13.966116934042779 10.491266695224825 28.43594699769346
rtibia 35.22784828960401
rfoot 29.83953347621497 -5.533688652227029
rtoes 10.154631957488835
lowerback 14.554486587894974 2.2929677394467447 1.5861137746865581
upperback -1.181346090512401 3.271197537578527 -1.0338398206746913
thorax -8.624292743562043 1.5218695168911016 -2.2566469986145066
lowerneck -17.357142402410542 -5.921366371482999 -2.0058648679380737
upperneck 12.210138479613464 -8.314795994207902 3.649035211348813
head 6.690863400245935 -3.6949431400006567 0.6414619299874612
lclavicle -2.0490533145568384e-17 4.2580992004216163e-16
lhumerus -71.28042053368148 -0.488109907449255 90.72176261899544
lradius 97.9469195779046
lwrist 35.87025167126268
lhand -25.071732909990146 0.42002328140193246
lfingers 7.125019999999998
lthumb 1.638662938563657 29.486188502405472
rclavicle -2.0490533374895223e-17 4.258099198904734e-16
rhumerus -27.186708258438156 23.39020662879458 -94.96977079405984
rradius 117.64891461448259
rwrist -18.90558179751253
rhand -19.924224098275257 43.10441165870319
rfingers 7.125019999999998
rthumb 6.3013617892648455 13.227670616215821
28
root -1.131154184293295 17.9671359218128 -14.11677670985269 5.153142469448275 0.054536014738153504 0.38432088242693163
lfemur -36.68066940916237 3.5363890138043628 -23.62328855821756
ltibia 43.35462094199688
lfoot 7.632972168283014 -20.455124775695634
ltoes -9.601329065003316
rfemur 13.137046225155133 10.868153974729573 28.424123451822187
rtibia 37.770222436158114
rfoot 28.25458426159554 -4.994938555236376
rtoes 11.13349166052318
lowerback 14.512248745243982 2.3193454728453404 1.4621352776041074
upperback -1.1921295621710715 3.291156223432237 -1.2504343781390626
thorax -8.547624144290426 1.5545976853469692 -2.344707253889747
lowerneck -17.899217560237368 -6.00003801326254 -1.91677841181241
upperneck 12.047303887419911 -8.44302218098225 3.8532101165433255
head 6.716951070515537 -3.723461705779024 0.6597268803533707
lclavicle -2.0490533110151654e-17 4.2580992006505354e-16
lhumerus -71.29656489773149 -0.10032598244226776 90.18444151595526
lradius 98.14920711654236
lwrist 35.61174085139589
lhand -25.20644183059999 1.4904823126507414
lfingers 7.125019999999998
lthumb 1.4100675896726829 29.647785395007343
rclavicle -2.049053337302526e-17 4.2580991989195004e-16
rhumerus -27.774772413621672 23.31683453635284 -95.11265471047456
rradius 116.71398739414822
rwrist -18.90308613979981
rhand -19.858473535872132 42.6960728283711
rfingers 7.125019999999998
rthumb 6.295174851582938 12.53075013296348
29
root -1.1167224642670355 17.955167880446787 -13.43029396555044 5.172499501627126 -0.15188514198719938 0.3804135585108951
lfemur -34.87084952810226 4.050866755923223 -24.15873347988524
ltibia 39.90840812655506
lfoot 7.6194746157810895 -19.25189495460022
ltoes -11.711539036365506
rfemur 11.976539547290963 11.043719155756367 28.312454178846355
rtibia 40.76543180967881
rfoot 26.517975803907888 -4.73093447293948
rtoes 9.213974864375643
lowerback 14.449630165573337 2.3179054247026567 1.3333164845030054
upperback -1.0919790852532352 3.261629842831402 -1.3256046328792421
thorax -8.301338457337572 1.5541356719855162 -2.3705120533682145
lowerneck -18.781724498645673 -5.984124637620697 -1.7666553862200325
upperneck 11.952489696264793 -8.444792569223946 4.010176700664896
head 6.758281751015447 -3.7091586367693514 0.6884475026697126
lclavicle -2.0490533117069523e-17 4.258099200617667e-16
lhumerus -71.09234027245405 0.30644116483799166 89.75282952088264
lradius 98.17154116821554
lwrist 35.41197067002835
lhand -25.283817703860965 2.349424196942814
lfingers 7.125019999999998
lthumb 1.2256083505891988 30.195113890437106
rclavicle -2.0490533381220288e-17 4.258099198879732e-16
rhumerus -28.493582489764787 23.164315979362257 -95.32950254039719
rradius 115.5036572370186
rwrist -18.986973078659993
rhand -19.813937634058195 42.28254492969125
rfingers 7.125019999999998
rthumb 6.274260717296967 11.904679655692641
30
root -1.1123089094492402 17.926040855931365 -12.783451417410266 5.1711023586113765 -0.37627878915660773 0.42710198733378346
lfemur -33.03185568190324 4.5864296992721965 -24.760372543969783
ltibia 36.84557483236428
lfoot 7.374103335328059 -17.666727036642303
ltoes -14.67812635305128
rfemur 10.564248180813573 11.127182149586991 28.120504810836717
rtibia 44.207941717915645
rfoot 24.554174690558117 -4.925501777068784
rtoes 7.287250367075105
lowerback 14.432200624625452 2.3180450085391238 1.147099841185062
upperback -1.0331127324212552 3.1994091232654647 -1.358697872406462
thorax -8.134766527397442 1.5144424752136052 -2.2748518363517363
lowerneck -19.00923498958229 -5.951965534521664 -1.704758966659903
upperneck 11.807027526222463 -8.464050897292235 4.186438534096485
head 6.799565784249926 -3.6852565578551686 0.7296846587439593
lclavicle -2.0490533134816937e-17 4.258099200521964e-16
lhumerus -70.84680463116862 0.5398375867849374 89.39733024689686
lradius 98.14333639819112
lwrist 35.18260539582045
lhand -25.7346748442298 2.0846396140412113
lfingers 7.125019999999998
lthumb 0.9419775349216972 30.471291522726975
rclavicle -2.04905333752744e-17 4.258099198938781e-16
rhumerus -29.178811665602808 22.93684174345539 -95.50355406409984
rradius 113.9815851173981
rwrist -18.984857221889857
rhand -19.827259984550697 41.744112913959775
rfingers 7.125019999999998
rthumb 6.227461928752053 11.371880004986892
31
root -1.1110725517934155 17.90218107928908 -12.289381776686401 5.140657251861789 -0.5382640812130837 0.47156311773436443
lfemur -31.12785151269427 5.0460242604064796 -25.248131049914836
ltibia 34.45102652760393
lfoot 7.370825155964506 -16.087529878875472
ltoes -17.89971796961694
rfemur 8.953686324262732 10.974529690642889 27.808394085423185
rtibia 47.87858879788527
rfoot 22.53068208599476 -5.426635829057325
rtoes 6.337863650063943
lowerback 14.450691320528852 2.2842129759205463 0.9531157267533483
upperback -1.0322808372238403 3.120672103259136 -1.386663295351545
thorax -8.154803300986037 1.4837447066458702 -2.173659181849955
lowerneck -18.457559224266785 -5.870250847872415 -1.780059883717946
upperneck 11.510482938982854 -8.38674229271205 4.413970914905211
head 6.724432859554719 -3.6455908292146817 0.7978177335484636
lclavicle -2.0490533177757832e-17 4.258099200253882e-16
lhumerus -70.41659842142778 0.6528071184867805 89.1199946364178
lradius 97.92839142113681
lwrist 34.9798596744852
lhand -25.862041876487165 2.348007066683767
lfingers 7.125019999999998
lthumb 0.30897390695889015 29.8879233562891
rclavicle -2.0490533367611818e-17 4.2580991989945083e-16
rhumerus -29.94722786774733 22.5184842916484 -95.58711498331273
rradius 112.31681510937355
rwrist -18.949774437106324
rhand -19.854881239003213 41.10466136659008
rfingers 7.125019999999998
rthumb 6.195745817968344 10.850319416296742
